<?xml version="1.0" encoding="utf-8"?>
<!-- Generator: Adobe Illustrator 27.6.1, SVG Export Plug-In . SVG Version: 6.00 Build 0)  -->
<svg version="1.1" xmlns="http://www.w3.org/2000/svg" xmlns:xlink="http://www.w3.org/1999/xlink" x="0px" y="0px"
	 viewBox="0 0 500 500" style="enable-background:new 0 0 500 500;" xml:space="preserve">
<style type="text/css">
	.st0{fill:#1C1259;}
	.st1{fill:#FFD28C;}
	.st2{fill:#CACAEA;}
	.st3{fill:#EE4266;}
	.st4{font-family:'SourceSansPro-Bold';}
	.st5{font-size:16.5555px;}
	.st6{font-family:'NunitoSans-Bold';}
	.st7{fill:url(#SVGID_1_);}
	.st8{fill:#919191;}
	.st9{fill:#BABBBA;}
	.st10{fill:#D6D8D6;}
	.st11{fill:#1F2F1F;}
	.st12{fill:#778586;}
	.st13{fill:#4F475C;}
	.st14{fill:#657172;}
	.st15{fill:#8B6248;}
	.st16{fill:#FF9B00;}
	.st17{fill:#7E5600;}
	.st18{fill:none;stroke:#7E5600;stroke-width:0.9723;stroke-miterlimit:10;}
	.st19{fill:none;stroke:#1F2F1F;stroke-width:2;stroke-miterlimit:10;}
	.st20{fill:none;stroke:#1F2F1F;stroke-width:0.9723;stroke-miterlimit:10;}
	.st21{fill:#FFFFFF;}
	.st22{fill:url(#SVGID_00000097484232778506198620000001254811255560022452_);}
	.st23{fill:#C4C5C4;}
	.st24{fill:#D7D8D7;}
	.st25{fill:none;stroke:#A9A4A9;stroke-miterlimit:10;}
	.st26{font-size:25.4837px;}
</style>
<g id="BACKGROUND1">
	<rect class="st0" width="500" height="500"/>
</g>
<g id="OBJECTS">
	<g>
		<path class="st1" d="M127.32,73.99c-10.84,21.68-4,48-17.33,68s-54.67,16.67-59.33,63.33s9.33,92.67,42,106.67
			s61.33,18.67,69.33,42c8,23.33,65.33,30.67,96.67,26s68.67-45.33,100.67-39.33s80-15.33,82-54.67s-20.67-62.67-21.33-76
			c-0.67-13.33,1.33-17.33,15.33-30.67s27.75-29.1,24.67-50.67c-4.67-32.67-36.67-62.67-74.67-71.33
			c-38.85-8.86-96,35.33-114.67,28.67c-18.67-6.67-32.67-36.67-58.67-42S138.65,51.32,127.32,73.99z"/>
	</g>
	<g>
		<g>
			<path class="st2" d="M443.98,107.59c0,4.53-3.67,8.21-8.21,8.21H297.23c-4.53,0-8.21-3.67-8.21-8.21V43.21
				c0-4.53,3.67-8.21,8.21-8.21h138.54c4.53,0,8.21,3.67,8.21,8.21V107.59z"/>
			<polygon class="st2" points="328.54,109.11 328.54,141.33 354.68,109.72 			"/>
		</g>
		<text transform="matrix(1 0 0 1 300.4532 63.9507)" class="st3 st4 st5">HTML5 | CSS3 | JS</text>
		<text transform="matrix(1 0 0 1 300.4532 89.4204)" class="st3 st6 st5">Angular | React ?</text>
	</g>
	<path class="st2" d="M432,425.65c0,16.38-81.48,29.67-182,29.67c-100.52,0-182-13.28-182-29.67c0-16.38,81.48-29.67,182-29.67
		C350.52,395.99,432,409.27,432,425.65z"/>
	<g>
		<linearGradient id="SVGID_1_" gradientUnits="userSpaceOnUse" x1="202.1683" y1="158.5593" x2="157.376" y2="261.7523">
			<stop  offset="5.263160e-03" style="stop-color:#FFFFFF;stop-opacity:0"/>
			<stop  offset="1" style="stop-color:#FFFFFF"/>
		</linearGradient>
		<polygon class="st7" points="85.32,187.32 143.99,97.99 296.65,181.32 196.65,257.32 		"/>
		<path class="st8" d="M201.98,258.19c0.09,1.37-0.94,2.48-2.31,2.48H89.57c-1.37,0-2.55-1.11-2.65-2.48l-4.98-74.54
			c-0.09-1.37,0.95-2.48,2.31-2.48h110.09c1.37,0,2.55,1.11,2.65,2.48L201.98,258.19z"/>
		<path class="st9" d="M196.99,183.64c-0.09-1.37-1.28-2.48-2.65-2.48h-3.5c1.37,0,2.55,1.11,2.65,2.48l4.98,74.54
			c0.09,1.37-0.95,2.48-2.31,2.48h3.5c1.37,0,2.41-1.11,2.31-2.48L196.99,183.64z"/>
		<g>
			<path class="st10" d="M154.83,278.12c0,0.43-0.35,0.78-0.78,0.78H137.5c-0.43,0-0.78-0.35-0.78-0.78v-1.13
				c0-0.43,0.35-0.78,0.78-0.78h16.55c0.43,0,0.78,0.35,0.78,0.78V278.12z"/>
			<path class="st9" d="M141.06,277.53c-0.09,0.75-0.78,1.36-1.53,1.36h-23.6c-0.75,0-1.29-0.61-1.2-1.36l7.32-60.15
				c0.09-0.75,0.78-1.36,1.53-1.36h23.6c0.75,0,1.29,0.61,1.2,1.36L141.06,277.53z"/>
			<path class="st10" d="M148.38,217.38c0.09-0.75-0.44-1.36-1.2-1.36h-3c0.75,0,1.29,0.61,1.2,1.36l-7.32,60.15
				c-0.09,0.75,1.47,1.36,1.47,1.36c0.75,0,1.44-0.61,1.53-1.36L148.38,217.38z"/>
		</g>
	</g>
	<g>
		<g>
			<path class="st11" d="M319.93,321.71v71.46h-0.02c-0.08,1.14-1.69,2.05-3.67,2.05c-1.99,0-3.6-0.91-3.67-2.05h-0.01v-71.46
				H319.93z"/>
		</g>
		<g>
			<g>
				<g>
					<g>
						<path class="st11" d="M268.61,408.44c-2.31,0-4.18-1.87-4.18-4.18c0-9.67,7.68-12.72,14.38-14.29
							c8.14-1.92,35.31-3.74,36.46-3.82c2.31-0.16,4.3,1.59,4.45,3.89c0.15,2.3-1.59,4.3-3.9,4.45c-0.28,0.02-27.63,1.86-35.1,3.62
							c-7.93,1.87-7.93,4.04-7.93,6.15C272.79,406.56,270.92,408.44,268.61,408.44z"/>
					</g>
				</g>
				<g>
					<path class="st12" d="M277.9,412.85c0,5.78-4.68,10.46-10.46,10.46c-5.77,0-10.46-4.68-10.46-10.46
						c0-5.77,4.68-10.46,10.46-10.46C273.22,402.4,277.9,407.08,277.9,412.85z"/>
				</g>
				<g>
					<path class="st13" d="M271.78,412.85c0,2.39-1.94,4.33-4.33,4.33c-2.39,0-4.33-1.94-4.33-4.33c0-2.39,1.94-4.33,4.33-4.33
						C269.84,408.52,271.78,410.46,271.78,412.85z"/>
				</g>
			</g>
			<g>
				<g>
					<g>
						<path class="st11" d="M363.87,408.44c2.31,0,4.18-1.87,4.18-4.18c0-9.67-7.68-12.72-14.38-14.29
							c-8.14-1.92-35.31-3.74-36.46-3.82c-2.31-0.16-4.3,1.59-4.45,3.89c-0.15,2.3,1.59,4.3,3.9,4.45
							c0.28,0.02,27.63,1.86,35.1,3.62c7.93,1.87,7.93,4.04,7.93,6.15C359.69,406.56,361.56,408.44,363.87,408.44z"/>
					</g>
				</g>
				<g>
					<path class="st12" d="M354.58,412.85c0,5.78,4.68,10.46,10.46,10.46c5.77,0,10.46-4.68,10.46-10.46
						c0-5.77-4.68-10.46-10.46-10.46C359.26,402.4,354.58,407.08,354.58,412.85z"/>
				</g>
				<g>
					<path class="st13" d="M360.7,412.85c0,2.39,1.94,4.33,4.33,4.33c2.39,0,4.33-1.94,4.33-4.33c0-2.39-1.94-4.33-4.33-4.33
						C362.64,408.52,360.7,410.46,360.7,412.85z"/>
				</g>
			</g>
		</g>
		<g>
			<path class="st11" d="M316.24,414.94c-2.31,0-4.18-1.87-4.18-4.18v-20.45c0-2.31,1.87-4.18,4.18-4.18c2.31,0,4.18,1.87,4.18,4.18
				v20.45C320.42,413.07,318.55,414.94,316.24,414.94z"/>
		</g>
		<path class="st14" d="M321.21,421.34c0,1.09-0.88,1.97-1.96,1.97h-6.01c-1.09,0-1.97-0.88-1.97-1.97v-16.05
			c0-1.09,0.88-1.97,1.97-1.97h6.01c1.09,0,1.96,0.88,1.96,1.97V421.34z"/>
		<path class="st11" d="M361.35,308.17c-1.15-1.53-89.08-1.53-90.23,0c-1.5,2-7,23.5,7.5,23.5c4.86,0,70.36,0,75.23,0
			C368.35,331.67,362.85,310.17,361.35,308.17z"/>
		<path class="st11" d="M315.5,209.16c7-2,54.5-5.5,58,6s-6.5,78-8.5,93.5s-33.5,10-49.5,9.5s-21.5-7.5-18-20.5s12-52.5,13-61
			S308.5,211.16,315.5,209.16z"/>
		<path class="st0" d="M342.5,211.16c0,0,11.5,0.5,11.5,13s-3.5,30-1,39c2.5,9,4,34.5,2,42.5s-13,17.5-22,17s-40,10-48.5,0
			S330.5,207.16,342.5,211.16z"/>
	</g>
	<g>
		<path class="st11" d="M300.93,138.33c8.02,0.24,24.79,4.38,28.68,24.06c3.89,19.69-0.73,21.15,5.83,27.95
			c6.56,6.81,13.86,15.8,12.15,26.25c-1.7,10.45-32.33,10.21-32.33,10.21s-39.86,1.7-42.78-3.4c-2.92-5.1,3.4-16.04,3.16-25.52
			c-0.24-9.48-3.65-32.08-0.97-39.62C277.36,150.72,292.91,138.08,300.93,138.33z"/>
		<g>
			<path class="st1" d="M220.26,371.82c0,0-3.25,3.95-9.76,11.28c-2.4,2.71-8.48,5.94-10.62,8.59c-4.05,5.01-5.91,8.65,0,10.33
				c4.52,1.29,9.77,2.01,15.2,0.52c4.6-1.27,9.54-9.78,13.19-11.88c3.65-2.1,4.68-2.89,6.7-4.73c2.03-1.84-0.59-12.68-0.59-12.68
				L220.26,371.82z"/>
			<path class="st15" d="M220.61,367.21c0,0-6.04,9.03-8.38,13.63c-2.33,4.6-5.87,7.65-1.14,8.95c4.73,1.3,8.18-1.06,13.18-4.62
				c5-3.57,9.48-5.8,10.18-8.51c0.69-2.71,0.53-6.93,0.15-9.43c-0.38-2.5,1.62-15.54,1.62-15.54L224,348.75L220.61,367.21z"/>
		</g>
		<g>
			<path class="st1" d="M268.73,393.31c0,0-1.42,4.91-4.49,14.23c-1.13,3.44-5.43,8.81-6.35,12.1c-1.73,6.21-2,10.28,4.1,9.49
				c4.66-0.61,9.77-2.03,14.16-5.55c3.72-2.99,4.88-12.77,7.4-16.14c2.52-3.38,3.15-4.51,4.28-7c1.13-2.49-5.56-11.41-5.56-11.41
				L268.73,393.31z"/>
			<path class="st15" d="M267.23,388.95c0,0-1.97,10.68-2.29,15.83c-0.32,5.15-2.36,9.35,2.5,8.67c4.86-0.68,7.09-4.22,10.27-9.47
				c3.18-5.25,6.41-9.08,5.97-11.84c-0.44-2.76-2.26-6.57-3.6-8.71c-1.34-2.14-4.67-14.91-4.67-14.91l-12.39,2.13L267.23,388.95z"/>
		</g>
		<path class="st3" d="M288.04,285.46c0,0-57.85,1.64-62.89,15.12c-5.04,13.48-11.36,70.5-9.72,72.37
			c1.64,1.87,28.93-3.82,29.33-6.09c0.73-4.13,6.36-46.98,9.02-51.37c2.67-4.39,24.08,8.48,36.44,7.47
			c12.82-1.04,26.84-3.75,30.55-11.4c3.46-7.14-1.83-26.65-1.83-26.65L288.04,285.46z"/>
		<g>
			<path class="st3" d="M308.96,288.58c0,0-11.02,5.65-25.32,10.95c-12.25,4.54-27.92,8.23-29.85,14.58
				c-4.19,13.77,7.09,72.18,8.85,73.94c1.76,1.76,26.82-5,27.07-7.29c0.46-4.17-4.73-50.79-4.17-53.62
				c0.57-2.83,17.4-1.34,29.68-3.12c12.72-1.84,22.69-4.83,28.05-11.43c9.28-11.42,0.95-35.02,0.95-35.02L308.96,288.58z"/>
		</g>
		<path class="st15" d="M280.85,203.06c-4,1.33-8.5,6.83-8.17,19.17c0.33,12.33,0.32,23.27,0.32,23.27L261.17,268
			c0,0,5.83,6.17,8.5,4.5c2.67-1.67,15.33-20.17,16-22.33C286.33,248,286.89,201.04,280.85,203.06z"/>
		<path class="st16" d="M313.96,196.29c0,0,21.06-1.4,26.06,7.6s3.85,14.25,2.67,24.33c-0.76,6.47-2.3,17.19-3,23.33
			c-0.7,6.14,0.59,4.03,2.3,11.68c1.7,7.65,4.83,21.22,4.02,22.93c-3,6.33-25.91,9.41-43.5,8c-17.59-1.41-20-7-20-7
			s2.83-23.83,3.5-28.83c0.39-2.94-0.76-9.3-2.33-14.83c-1.1-3.88-3.17-5.17-4-10.67s1.48-10.65,1-15.5
			c-0.68-6.9-0.99-13.44-0.32-14.61c0.67-1.17,2.83-2.17,3.6-2.28C297.36,198.49,313.96,196.29,313.96,196.29z"/>
		<path class="st15" d="M303.35,214.22c4.67,0,19.71-9.72,24.28-17.11c-6.82-1.28-16.46-2.45-21.13-1.78
			c-4.67,0.67-9.33,1-20.68,4.23C287.31,205.97,298.68,214.22,303.35,214.22z"/>
		<path class="st15" d="M345.35,210.89c2.67,9.67,0.49,39.44-5.51,49.11c-4.87,7.84-22.33,10.33-28,12.67c-5.67,2.33-10-5.68-6.33-8
			c3.67-2.32,21.67-12.33,21.67-12.33s-0.82-40.44,3.51-46.44S342.68,201.22,345.35,210.89z"/>
		<path class="st11" d="M294.89,139.07c0,0-23.6,5.58-21.64,23.73c1.65,15.21,11.78,20.42,11.78,20.42s3.11-19.71,7.27-25.62
			C296.47,151.67,294.89,139.07,294.89,139.07z"/>
		<path class="st15" d="M309.5,148c-6.79-6.52-12.84-7.16-21.03-2.82c-5.56,2.95-9.81,12.57-10.03,19.56
			c-0.18,5.67,0.68,26.58,16.76,28.93c9.62,1.41,12.06-0.45,16.69-5.28C322.5,177.33,320.43,158.51,309.5,148z"/>
		<path class="st15" d="M295.31,182.87l0.55,19.61c0,0,1.34,11.21,7.34,11.2c6-0.01,12.22-14.63,12.22-14.63l-6.64-22.11
			L295.31,182.87z"/>
		<path class="st11" d="M317.34,172.47c1.74,1.34-1.25,11.24-0.31,11.67c1.83,0.83,6.96-7.18,9.05-10.82
			c3.16-5.51,1.91-17.17-1.54-23.25c-3.44-6.08-10.37-10.41-18.04-12.41c-8.09-2.11-29.97,8.08-26.12,15.41
			c3.85,7.33,10.35,8.35,15.21,8.35c4.86,0,11.41,1.54,13.97,2.96C312.12,165.8,312.23,168.52,317.34,172.47z"/>
		<path class="st15" d="M320.84,165.94c-0.89-1.47-2.65-2.54-4.24-2.09c-1.37,0.39-5.1,4.74-5.13,9.36
			c-0.03,3.56,3.16,4.94,5.08,5.32c1.64,0.33,3-0.68,3.89-1.99C322.39,173.66,322.79,169.12,320.84,165.94z"/>
		<path class="st11" d="M299.36,172.82c0,1.61,1.31,2.92,2.92,2.91c1.61,0,2.91-1.31,2.91-2.92c0-1.61-1.31-2.92-2.92-2.91
			C300.66,169.9,299.35,171.21,299.36,172.82z"/>
		<path class="st11" d="M282.79,174.79c0,1.61,1.31,2.92,2.92,2.91c1.61,0,2.91-1.31,2.91-2.92c0-1.61-1.31-2.91-2.92-2.91
			C284.09,171.88,282.78,173.18,282.79,174.79z"/>
		<g>
			<path class="st17" d="M291.8,169.08c1.08,1.46,1.84,3.16,1.91,5c-0.03,0.31,0.02,0.68-0.4,1.25l0.2-0.39
				c-0.26,1.14-1.17,2.79-1.11,3.59c1.23,0.65,2.9,0.65,4.29,0.88c-0.77,0.21-1.54,0.36-2.34,0.43c-1.09,0.07-2.7,0.28-3.31-0.96
				c-0.59-1.43,0.21-3.18,0.59-4.41l0.2-0.39C291.96,172.96,291.69,170.62,291.8,169.08L291.8,169.08z"/>
		</g>
		<path class="st18" d="M296.61,193.89c7.12,0.75,9.49-1.02,13.25-4.12"/>
		<g>
			<g>
				<path class="st11" d="M304.02,166.8c0.02,0.03,0.03,0.07,0.05,0.1c-0.02-0.15-0.04-0.31-0.06-0.46
					c-0.03,0.2-0.06,0.41,0.06,0.58c0.26-0.33,0.51-0.67,0.77-1c-0.05-0.01-0.1-0.02-0.14-0.04c0.12,0.04,0.01,0-0.02-0.02
					c-0.1-0.05-0.21-0.1-0.32-0.14c-0.03-0.01-0.07-0.03-0.1-0.03c-0.07-0.01-0.13-0.02-0.2-0.03c0.03,0,0.07,0,0.1,0.01
					c0,0-0.43-0.07-0.44-0.07c-0.44-0.06-0.89-0.03-1.34-0.01c-0.97,0.04-2.12-0.05-2.88,0.65c-0.25,0.22-0.28,0.64-0.12,0.92
					c0.18,0.3,0.52,0.41,0.86,0.35c0.18-0.04,0.35-0.1,0.53-0.15c0.1-0.03,0.19-0.05,0.29-0.07c0.05-0.01,0.1-0.02,0.15-0.03
					c-0.09,0.01-0.04,0,0.02,0c0.42-0.03,0.84-0.04,1.26-0.08c0.4-0.04,0.82-0.08,1.22-0.05c0.02,0,0.16,0.02,0.07,0.01
					c-0.11-0.02,0.16,0.03,0.13,0.02c0.12,0.02,0.13,0.02,0.04,0c-0.07-0.01-0.08-0.01-0.04,0c0.02,0.01,0.07,0.02,0.09,0.03
					c0.21,0.07,0.44,0.1,0.66,0.07c0.3-0.04,0.57-0.19,0.66-0.5c0.08-0.31-0.06-0.6-0.31-0.77c-0.17-0.12-0.39-0.1-0.58-0.06
					c0.15,0.02,0.31,0.04,0.46,0.06c-0.03-0.02-0.07-0.03-0.1-0.05C304.26,165.81,303.78,166.28,304.02,166.8L304.02,166.8z"/>
			</g>
		</g>
		<line class="st19" x1="284.56" y1="168.63" x2="284.56" y2="168.63"/>
		<g>
			<g>
				<path class="st11" d="M286.5,168.57c0.02,0.03,0.04,0.06,0.06,0.09c-0.03-0.1-0.05-0.2-0.08-0.3c-0.01,0.21,0.06,0.4,0.2,0.55
					c0.16-0.39,0.32-0.78,0.48-1.17c0.08,0.01-0.05-0.01-0.07-0.02c-0.04-0.01-0.08-0.03-0.12-0.04c-0.12-0.04-0.25-0.06-0.38-0.08
					c-0.19-0.02-0.38-0.03-0.58-0.01c-0.51,0.03-1,0.14-1.5,0.23c-0.09,0.02-0.19,0.03-0.28,0.05c-0.22,0.04,0.13-0.01-0.02,0
					c-0.1,0.01-0.2,0.02-0.3,0.04c-0.23,0.04-0.45,0.09-0.67,0.16c-0.58,0.19-1.11,0.43-1.36,1.02c-0.18,0.44,0.28,0.95,0.71,0.93
					c0.28-0.01,0.51-0.12,0.77-0.25c0.04-0.02,0.08-0.04,0.12-0.06c0.11-0.05-0.12,0.04,0,0c0.1-0.03,0.2-0.07,0.31-0.1
					c0.41-0.12,0.83-0.17,1.24-0.26c0.2-0.05,0.4-0.1,0.6-0.14c0.11-0.02,0.23-0.05,0.34-0.07c0.01,0,0.16-0.02,0.08-0.01
					c-0.08,0.01,0.07-0.01,0.08-0.01c0.1-0.01,0.21-0.01,0.31-0.01c0.01,0,0.11,0.01,0.11,0c0,0-0.18-0.03-0.05-0.01
					c0.29,0.06,0.57,0.06,0.86-0.02c0.54-0.15,0.7-0.98,0.16-1.25c-0.19-0.1-0.39-0.12-0.59-0.05c0.11,0,0.21,0,0.32,0
					c-0.03-0.01-0.07-0.02-0.1-0.03C286.68,167.63,286.24,168.17,286.5,168.57L286.5,168.57z"/>
			</g>
		</g>
		<path class="st20" d="M295.83,144.41c0,0,13.42-0.04,18.96,17.01"/>
		<path class="st20" d="M283.61,149.94c0,0,6.46,7.86,12.17,8.83"/>
		<path class="st20" d="M290.42,146.9c0,0,15.62,6.02,16.84,12.58"/>
		<path class="st21" d="M303.04,180.79l-12.48,2.76c0,0,5.35,7.78,9.4,5.51C304.01,186.78,303.04,180.79,303.04,180.79z"/>
		<path class="st20" d="M318.92,152.91c0,0,7.05,5.35,7.29,17.5c0.17,8.52-2.67,13.86,0.49,17.99c3.16,4.13,7.29,7.29,7.54,10.7"/>
		<path class="st20" d="M278.81,180.87c0,0,2.43,3.16,3.16,9.97c0.73,6.81-1.46,8.02-1.7,10.45"/>
		<path class="st15" d="M307.17,265.33c0,0-11.34-7.35-15.73-6.25c-4.39,1.1-8.42,0-10.98,4.03c-2.56,4.03-4.39,8.05-2.2,8.79
			c1.05,0.35,2.5-0.43,3.48-2.01c1.19-1.92,3.11-3.11,3.11-3.11s-0.73,1.81-1.19,3.75c-0.46,1.95-0.64,4.03,0.46,4.58
			c1.17,0.58,1.87-0.75,2.75-2.65c0.77-1.68,2.75-3.94,2.75-3.94s-0.62,1.72-0.96,3.5c-0.34,1.78-0.41,3.64,0.69,3.91
			c1,0.25,2.53-1.73,2.88-2.8c0.43-1.28,2.34-1.78,2.34-1.78s2.2,4.58,7.41,4.58c5.22,0,9.69-2.08,9.14-4.28
			C310.55,269.45,307.17,265.33,307.17,265.33z"/>
		<path class="st18" d="M287.39,263.84c0,0-3.41,1.41-3.77,7.4"/>
		<path class="st18" d="M294.5,264.92c-3-0.5-4.4,2.34-5,3.5c-0.6,1.16-1.75,3.25-1,5.25"/>
	</g>
	<g>
		<g>
			<rect x="110.85" y="290.16" class="st11" width="4.5" height="147.5"/>
			<rect x="103.35" y="290.16" class="st11" width="8.5" height="147.5"/>
		</g>
		<g>
			<rect x="169.18" y="281.49" class="st11" width="4.5" height="138.17"/>
			<rect x="161.68" y="281.49" class="st11" width="8.5" height="138.17"/>
		</g>
		<g>
			<rect x="342.51" y="290.16" class="st11" width="4.5" height="147.5"/>
			<rect x="335.01" y="290.16" class="st11" width="8.5" height="147.5"/>
		</g>
		<g>
			<rect x="400.85" y="281.49" class="st11" width="4.5" height="138.17"/>
			<rect x="393.35" y="281.49" class="st11" width="8.5" height="138.17"/>
		</g>
		<path class="st11" d="M426.83,292c0,1.66-1.34,3-3,3H76.17c-1.66,0-3-1.34-3-3v-10c0-1.66,1.34-3,3-3h347.67c1.66,0,3,1.34,3,3
			V292z"/>
	</g>
	<g>
		
			<linearGradient id="SVGID_00000000926026479957482210000015423304081968322728_" gradientUnits="userSpaceOnUse" x1="282.0779" y1="179.9427" x2="237.5095" y2="282.6199">
			<stop  offset="5.263160e-03" style="stop-color:#FFFFFF;stop-opacity:0"/>
			<stop  offset="1" style="stop-color:#FFFFFF"/>
		</linearGradient>
		<polygon style="fill:url(#SVGID_00000000926026479957482210000015423304081968322728_);" points="175.6,226.59 218.27,127.93 
			367.6,181.93 255.88,269.22 		"/>
		<path class="st23" d="M299.87,274.84l-31.95-3.25c-4-11.33-13.65-47.53-15.38-49.25c-2.12-2.1-73.81-1.08-75.9,1.75
			c-2.1,2.82,15.71,55.46,15.71,55.46s104.73-0.47,106.83-0.47C301.3,279.05,299.87,274.84,299.87,274.84z"/>
		<path class="st24" d="M221.33,248.54c1.03,4.14-1.16,8.25-4.89,9.17c-3.73,0.92-7.58-1.69-8.6-5.84
			c-1.02-4.14,1.17-8.25,4.89-9.17C216.46,241.78,220.31,244.39,221.33,248.54z"/>
		<line class="st25" x1="248.43" y1="226.75" x2="261.59" y2="272.25"/>
		<line class="st25" x1="193.93" y1="275.75" x2="258.43" y2="275.75"/>
		<path class="st24" d="M267.93,271.59c-4-11.33-13.65-47.53-15.38-49.25c-0.18-0.18-0.91-0.34-2.05-0.48
			c0.63,9,15.86,54.01,15.86,54.01s15-0.07,33.76-0.15c-0.12-0.51-0.24-0.88-0.24-0.88L267.93,271.59z"/>
	</g>
	<g>
		<g>
			<path class="st3" d="M134.13,123.43c0,4.14,4.47,7.5,9.98,7.5h113.35c5.51,0,9.98-3.36,9.98-7.5v-38.6c0-4.14-4.47-7.5-9.98-7.5
				H144.11c-5.51,0-9.98,3.36-9.98,7.5V123.43z"/>
			<polygon class="st3" points="253.73,124.82 253.73,154.27 229.49,125.37 			"/>
		</g>
		<text transform="matrix(1 0 0 1 140.9597 106.979)" class="st16 st6 st5">Object Vs Array</text>
	</g>
	<g>
		<g>
			<path class="st16" d="M436.23,180.6c0,3.42-2.78,6.2-6.2,6.2h-50.57c-3.43,0-6.2-2.78-6.2-6.2v-31.91c0-3.43,2.78-6.2,6.2-6.2
				h50.57c3.43,0,6.2,2.78,6.2,6.2V180.6z"/>
			<polygon class="st16" points="382.54,180.04 358.19,180.04 382.08,162.46 			"/>
		</g>
		<text transform="matrix(1 0 0 1 386.9751 173.3247)" class="st0 st4 st26">&lt;/&gt;</text>
	</g>
</g>
<g id="DESIGNED_BY_FREEPIK">
</g>
</svg>
